<svg aria-roledescription="er" role="graphics-document document" viewBox="0 0 652.2760009765625 474" style="max-width: 652.276px; background-color: white;" xmlns:xlink="http://www.w3.org/1999/xlink" xmlns="http://www.w3.org/2000/svg" width="100%" id="mermaid-0"><style>#mermaid-0{font-family:"trebuchet ms",verdana,arial,sans-serif;font-size:16px;fill:#000000;}#mermaid-0 .error-icon{fill:#552222;}#mermaid-0 .error-text{fill:#552222;stroke:#552222;}#mermaid-0 .edge-thickness-normal{stroke-width:2px;}#mermaid-0 .edge-thickness-thick{stroke-width:3.5px;}#mermaid-0 .edge-pattern-solid{stroke-dasharray:0;}#mermaid-0 .edge-pattern-dashed{stroke-dasharray:3;}#mermaid-0 .edge-pattern-dotted{stroke-dasharray:2;}#mermaid-0 .marker{fill:#000000;stroke:#000000;}#mermaid-0 .marker.cross{stroke:#000000;}#mermaid-0 svg{font-family:"trebuchet ms",verdana,arial,sans-serif;font-size:16px;}#mermaid-0 .entityBox{fill:#cde498;stroke:#13540c;}#mermaid-0 .attributeBoxOdd{fill:#ffffff;stroke:#13540c;}#mermaid-0 .attributeBoxEven{fill:#f2f2f2;stroke:#13540c;}#mermaid-0 .relationshipLabelBox{fill:hsl(78.1578947368, 58.4615384615%, 84.5098039216%);opacity:0.7;background-color:hsl(78.1578947368, 58.4615384615%, 84.5098039216%);}#mermaid-0 .relationshipLabelBox rect{opacity:0.5;}#mermaid-0 .relationshipLine{stroke:#000000;}#mermaid-0 .entityTitleText{text-anchor:middle;font-size:18px;fill:#000000;}#mermaid-0 :root{--mermaid-font-family:"trebuchet ms",verdana,arial,sans-serif;}</style><g/><defs><marker orient="auto" markerHeight="18" markerWidth="18" refY="9" refX="0" id="ONLY_ONE_START"><path d="M9,0 L9,18 M15,0 L15,18" fill="none" stroke="gray"/></marker></defs><defs><marker orient="auto" markerHeight="18" markerWidth="18" refY="9" refX="18" id="ONLY_ONE_END"><path d="M3,0 L3,18 M9,0 L9,18" fill="none" stroke="gray"/></marker></defs><defs><marker orient="auto" markerHeight="18" markerWidth="30" refY="9" refX="0" id="ZERO_OR_ONE_START"><circle r="6" cy="9" cx="21" fill="white" stroke="gray"/><path d="M9,0 L9,18" fill="none" stroke="gray"/></marker></defs><defs><marker orient="auto" markerHeight="18" markerWidth="30" refY="9" refX="30" id="ZERO_OR_ONE_END"><circle r="6" cy="9" cx="9" fill="white" stroke="gray"/><path d="M21,0 L21,18" fill="none" stroke="gray"/></marker></defs><defs><marker orient="auto" markerHeight="36" markerWidth="45" refY="18" refX="18" id="ONE_OR_MORE_START"><path d="M0,18 Q 18,0 36,18 Q 18,36 0,18 M42,9 L42,27" fill="none" stroke="gray"/></marker></defs><defs><marker orient="auto" markerHeight="36" markerWidth="45" refY="18" refX="27" id="ONE_OR_MORE_END"><path d="M3,9 L3,27 M9,18 Q27,0 45,18 Q27,36 9,18" fill="none" stroke="gray"/></marker></defs><defs><marker orient="auto" markerHeight="36" markerWidth="57" refY="18" refX="18" id="ZERO_OR_MORE_START"><circle r="6" cy="18" cx="48" fill="white" stroke="gray"/><path d="M0,18 Q18,0 36,18 Q18,36 0,18" fill="none" stroke="gray"/></marker></defs><defs><marker orient="auto" markerHeight="36" markerWidth="57" refY="18" refX="39" id="ZERO_OR_MORE_END"><circle r="6" cy="18" cx="9" fill="white" stroke="gray"/><path d="M21,18 Q39,0 57,18 Q39,36 21,18" fill="none" stroke="gray"/></marker></defs><path style="stroke: gray; fill: none;" marker-start="url(#ZERO_OR_ONE_START)" marker-end="url(#ZERO_OR_ONE_END)" d="M188.287841796875,193.89652748496545L195.36825561523438,202.9137729041379C202.44866943359375,211.93101832331027,216.6094970703125,229.96550916165515,227.5404265721639,247.3160879141609C238.4713560740153,264.6666666666667,246.17238744099936,281.3333333333333,250.02290312449136,289.6666666666667L253.8734188079834,298" class="er relationshipLine"/><path style="stroke: gray; fill: none;" marker-start="url(#ZERO_OR_ONE_START)" marker-end="url(#ONLY_ONE_END)" d="M89.61201531938511,198L86.61441340091989,206.33333333333334C83.61681148245465,214.66666666666666,77.62160764552421,231.33333333333334,74.62400572705899,253.5C71.62640380859375,275.6666666666667,71.62640380859375,303.3333333333333,71.62640380859375,317.1666666666667L71.62640380859375,331" class="er relationshipLine"/><path style="stroke: gray; fill: none;" marker-start="url(#ZERO_OR_MORE_START)" marker-end="url(#ONLY_ONE_END)" d="M506.65607337128347,143L512.9510374000605,160.5C519.2460014288374,178,531.8359294863914,213,538.1308935151684,244.33333333333334C544.4258575439453,275.6666666666667,544.4258575439453,303.3333333333333,544.4258575439453,317.1666666666667L544.4258575439453,331" class="er relationshipLine"/><path style="stroke: gray; fill: none;" marker-start="url(#ZERO_OR_MORE_START)" marker-end="url(#ONLY_ONE_END)" d="M463.29853809823237,143L447.2771236776448,160.5C431.2557092570573,178,399.2128804158821,213,378.16179112750564,238.83333333333334C357.11070183912915,264.6666666666667,347.0513521035512,281.3333333333333,342.0216772357623,289.6666666666667L336.9920023679733,298" class="er relationshipLine"/><g transform="translate(20,331 )" id="entity-Role-8dbdbbc4-0419-5464-aae6-f142fb2ece67"><rect height="90" width="103.2528076171875" y="0" x="0" class="er entityBox"/><text style="dominant-baseline: middle; text-anchor: middle; font-size: 12px;" transform="translate(51.62640380859375,12)" y="0" x="0" id="text-entity-Role-8dbdbbc4-0419-5464-aae6-f142fb2ece67" class="er entityLabel">Role</text><rect height="22" width="51.62640380859375" y="24" x="0" class="er attributeBoxOdd"/><text style="dominant-baseline: middle; font-size: 10.2px;" transform="translate(5,35)" y="0" x="0" id="text-entity-Role-8dbdbbc4-0419-5464-aae6-f142fb2ece67-attr-1-type" class="er entityLabel">STUDENT</text><rect height="22" width="51.62640380859375" y="24" x="51.62640380859375" class="er attributeBoxOdd"/><text style="dominant-baseline: middle; font-size: 10.2px;" transform="translate(56.62640380859375,35)" y="0" x="0" id="text-entity-Role-8dbdbbc4-0419-5464-aae6-f142fb2ece67-attr-1-name" class="er entityLabel">STUDENT</text><rect height="22" width="51.62640380859375" y="46" x="0" class="er attributeBoxEven"/><text style="dominant-baseline: middle; font-size: 10.2px;" transform="translate(5,57)" y="0" x="0" id="text-entity-Role-8dbdbbc4-0419-5464-aae6-f142fb2ece67-attr-2-type" class="er entityLabel">VERIFIER</text><rect height="22" width="51.62640380859375" y="46" x="51.62640380859375" class="er attributeBoxEven"/><text style="dominant-baseline: middle; font-size: 10.2px;" transform="translate(56.62640380859375,57)" y="0" x="0" id="text-entity-Role-8dbdbbc4-0419-5464-aae6-f142fb2ece67-attr-2-name" class="er entityLabel">VERIFIER</text><rect height="22" width="51.62640380859375" y="68" x="0" class="er attributeBoxOdd"/><text style="dominant-baseline: middle; font-size: 10.2px;" transform="translate(5,79)" y="0" x="0" id="text-entity-Role-8dbdbbc4-0419-5464-aae6-f142fb2ece67-attr-3-type" class="er entityLabel">ADMIN</text><rect height="22" width="51.62640380859375" y="68" x="51.62640380859375" class="er attributeBoxOdd"/><text style="dominant-baseline: middle; font-size: 10.2px;" transform="translate(56.62640380859375,79)" y="0" x="0" id="text-entity-Role-8dbdbbc4-0419-5464-aae6-f142fb2ece67-attr-3-name" class="er entityLabel">ADMIN</text></g><g transform="translate(223.2528076171875,298 )" id="entity-students-1a328c67-5d59-56d0-bf8f-611c89a8fa4f"><rect height="156" width="133.3228759765625" y="0" x="0" class="er entityBox"/><text style="dominant-baseline: middle; text-anchor: middle; font-size: 12px;" transform="translate(66.66143798828125,12)" y="0" x="0" id="text-entity-students-1a328c67-5d59-56d0-bf8f-611c89a8fa4f" class="er entityLabel">students</text><rect height="22" width="54.04840087890625" y="24" x="0" class="er attributeBoxOdd"/><text style="dominant-baseline: middle; font-size: 10.2px;" transform="translate(5,35)" y="0" x="0" id="text-entity-students-1a328c67-5d59-56d0-bf8f-611c89a8fa4f-attr-1-type" class="er entityLabel">String</text><rect height="22" width="57.59375" y="24" x="54.04840087890625" class="er attributeBoxOdd"/><text style="dominant-baseline: middle; font-size: 10.2px;" transform="translate(59.04840087890625,35)" y="0" x="0" id="text-entity-students-1a328c67-5d59-56d0-bf8f-611c89a8fa4f-attr-1-name" class="er entityLabel">id</text><rect height="22" width="21.68072509765625" y="24" x="111.64215087890625" class="er attributeBoxOdd"/><text style="dominant-baseline: middle; font-size: 10.2px;" transform="translate(116.64215087890625,35)" y="0" x="0" id="text-entity-students-1a328c67-5d59-56d0-bf8f-611c89a8fa4f-attr-1-key" class="er entityLabel">PK</text><rect height="22" width="54.04840087890625" y="46" x="0" class="er attributeBoxEven"/><text style="dominant-baseline: middle; font-size: 10.2px;" transform="translate(5,57)" y="0" x="0" id="text-entity-students-1a328c67-5d59-56d0-bf8f-611c89a8fa4f-attr-2-type" class="er entityLabel">String</text><rect height="22" width="57.59375" y="46" x="54.04840087890625" class="er attributeBoxEven"/><text style="dominant-baseline: middle; font-size: 10.2px;" transform="translate(59.04840087890625,57)" y="0" x="0" id="text-entity-students-1a328c67-5d59-56d0-bf8f-611c89a8fa4f-attr-2-name" class="er entityLabel">name</text><rect height="22" width="21.68072509765625" y="46" x="111.64215087890625" class="er attributeBoxEven"/><text style="dominant-baseline: middle; font-size: 10.2px;" transform="translate(116.64215087890625,57)" y="0" x="0" id="text-entity-students-1a328c67-5d59-56d0-bf8f-611c89a8fa4f-attr-2-key" class="er entityLabel"/><rect height="22" width="54.04840087890625" y="68" x="0" class="er attributeBoxOdd"/><text style="dominant-baseline: middle; font-size: 10.2px;" transform="translate(5,79)" y="0" x="0" id="text-entity-students-1a328c67-5d59-56d0-bf8f-611c89a8fa4f-attr-3-type" class="er entityLabel">String</text><rect height="22" width="57.59375" y="68" x="54.04840087890625" class="er attributeBoxOdd"/><text style="dominant-baseline: middle; font-size: 10.2px;" transform="translate(59.04840087890625,79)" y="0" x="0" id="text-entity-students-1a328c67-5d59-56d0-bf8f-611c89a8fa4f-attr-3-name" class="er entityLabel">email</text><rect height="22" width="21.68072509765625" y="68" x="111.64215087890625" class="er attributeBoxOdd"/><text style="dominant-baseline: middle; font-size: 10.2px;" transform="translate(116.64215087890625,79)" y="0" x="0" id="text-entity-students-1a328c67-5d59-56d0-bf8f-611c89a8fa4f-attr-3-key" class="er entityLabel"/><rect height="22" width="54.04840087890625" y="90" x="0" class="er attributeBoxEven"/><text style="dominant-baseline: middle; font-size: 10.2px;" transform="translate(5,101)" y="0" x="0" id="text-entity-students-1a328c67-5d59-56d0-bf8f-611c89a8fa4f-attr-4-type" class="er entityLabel">String</text><rect height="22" width="57.59375" y="90" x="54.04840087890625" class="er attributeBoxEven"/><text style="dominant-baseline: middle; font-size: 10.2px;" transform="translate(59.04840087890625,101)" y="0" x="0" id="text-entity-students-1a328c67-5d59-56d0-bf8f-611c89a8fa4f-attr-4-name" class="er entityLabel">picUrl</text><rect height="22" width="21.68072509765625" y="90" x="111.64215087890625" class="er attributeBoxEven"/><text style="dominant-baseline: middle; font-size: 10.2px;" transform="translate(116.64215087890625,101)" y="0" x="0" id="text-entity-students-1a328c67-5d59-56d0-bf8f-611c89a8fa4f-attr-4-key" class="er entityLabel"/><rect height="22" width="54.04840087890625" y="112" x="0" class="er attributeBoxOdd"/><text style="dominant-baseline: middle; font-size: 10.2px;" transform="translate(5,123)" y="0" x="0" id="text-entity-students-1a328c67-5d59-56d0-bf8f-611c89a8fa4f-attr-5-type" class="er entityLabel">DateTime</text><rect height="22" width="57.59375" y="112" x="54.04840087890625" class="er attributeBoxOdd"/><text style="dominant-baseline: middle; font-size: 10.2px;" transform="translate(59.04840087890625,123)" y="0" x="0" id="text-entity-students-1a328c67-5d59-56d0-bf8f-611c89a8fa4f-attr-5-name" class="er entityLabel">createdAt</text><rect height="22" width="21.68072509765625" y="112" x="111.64215087890625" class="er attributeBoxOdd"/><text style="dominant-baseline: middle; font-size: 10.2px;" transform="translate(116.64215087890625,123)" y="0" x="0" id="text-entity-students-1a328c67-5d59-56d0-bf8f-611c89a8fa4f-attr-5-key" class="er entityLabel"/><rect height="22" width="54.04840087890625" y="134" x="0" class="er attributeBoxEven"/><text style="dominant-baseline: middle; font-size: 10.2px;" transform="translate(5,145)" y="0" x="0" id="text-entity-students-1a328c67-5d59-56d0-bf8f-611c89a8fa4f-attr-6-type" class="er entityLabel">DateTime</text><rect height="22" width="57.59375" y="134" x="54.04840087890625" class="er attributeBoxEven"/><text style="dominant-baseline: middle; font-size: 10.2px;" transform="translate(59.04840087890625,145)" y="0" x="0" id="text-entity-students-1a328c67-5d59-56d0-bf8f-611c89a8fa4f-attr-6-name" class="er entityLabel">updatedAt</text><rect height="22" width="21.68072509765625" y="134" x="111.64215087890625" class="er attributeBoxEven"/><text style="dominant-baseline: middle; font-size: 10.2px;" transform="translate(116.64215087890625,145)" y="0" x="0" id="text-entity-students-1a328c67-5d59-56d0-bf8f-611c89a8fa4f-attr-6-key" class="er entityLabel"/></g><g transform="translate(54.9649658203125,20 )" id="entity-users-33ae1e26-be31-5c1d-bf65-e859e9d0308e"><rect height="178" width="133.3228759765625" y="0" x="0" class="er entityBox"/><text style="dominant-baseline: middle; text-anchor: middle; font-size: 12px;" transform="translate(66.66143798828125,12)" y="0" x="0" id="text-entity-users-33ae1e26-be31-5c1d-bf65-e859e9d0308e" class="er entityLabel">users</text><rect height="22" width="54.04840087890625" y="24" x="0" class="er attributeBoxOdd"/><text style="dominant-baseline: middle; font-size: 10.2px;" transform="translate(5,35)" y="0" x="0" id="text-entity-users-33ae1e26-be31-5c1d-bf65-e859e9d0308e-attr-1-type" class="er entityLabel">String</text><rect height="22" width="57.59375" y="24" x="54.04840087890625" class="er attributeBoxOdd"/><text style="dominant-baseline: middle; font-size: 10.2px;" transform="translate(59.04840087890625,35)" y="0" x="0" id="text-entity-users-33ae1e26-be31-5c1d-bf65-e859e9d0308e-attr-1-name" class="er entityLabel">id</text><rect height="22" width="21.68072509765625" y="24" x="111.64215087890625" class="er attributeBoxOdd"/><text style="dominant-baseline: middle; font-size: 10.2px;" transform="translate(116.64215087890625,35)" y="0" x="0" id="text-entity-users-33ae1e26-be31-5c1d-bf65-e859e9d0308e-attr-1-key" class="er entityLabel">PK</text><rect height="22" width="54.04840087890625" y="46" x="0" class="er attributeBoxEven"/><text style="dominant-baseline: middle; font-size: 10.2px;" transform="translate(5,57)" y="0" x="0" id="text-entity-users-33ae1e26-be31-5c1d-bf65-e859e9d0308e-attr-2-type" class="er entityLabel">String</text><rect height="22" width="57.59375" y="46" x="54.04840087890625" class="er attributeBoxEven"/><text style="dominant-baseline: middle; font-size: 10.2px;" transform="translate(59.04840087890625,57)" y="0" x="0" id="text-entity-users-33ae1e26-be31-5c1d-bf65-e859e9d0308e-attr-2-name" class="er entityLabel">name</text><rect height="22" width="21.68072509765625" y="46" x="111.64215087890625" class="er attributeBoxEven"/><text style="dominant-baseline: middle; font-size: 10.2px;" transform="translate(116.64215087890625,57)" y="0" x="0" id="text-entity-users-33ae1e26-be31-5c1d-bf65-e859e9d0308e-attr-2-key" class="er entityLabel"/><rect height="22" width="54.04840087890625" y="68" x="0" class="er attributeBoxOdd"/><text style="dominant-baseline: middle; font-size: 10.2px;" transform="translate(5,79)" y="0" x="0" id="text-entity-users-33ae1e26-be31-5c1d-bf65-e859e9d0308e-attr-3-type" class="er entityLabel">String</text><rect height="22" width="57.59375" y="68" x="54.04840087890625" class="er attributeBoxOdd"/><text style="dominant-baseline: middle; font-size: 10.2px;" transform="translate(59.04840087890625,79)" y="0" x="0" id="text-entity-users-33ae1e26-be31-5c1d-bf65-e859e9d0308e-attr-3-name" class="er entityLabel">password</text><rect height="22" width="21.68072509765625" y="68" x="111.64215087890625" class="er attributeBoxOdd"/><text style="dominant-baseline: middle; font-size: 10.2px;" transform="translate(116.64215087890625,79)" y="0" x="0" id="text-entity-users-33ae1e26-be31-5c1d-bf65-e859e9d0308e-attr-3-key" class="er entityLabel"/><rect height="22" width="54.04840087890625" y="90" x="0" class="er attributeBoxEven"/><text style="dominant-baseline: middle; font-size: 10.2px;" transform="translate(5,101)" y="0" x="0" id="text-entity-users-33ae1e26-be31-5c1d-bf65-e859e9d0308e-attr-4-type" class="er entityLabel">String</text><rect height="22" width="57.59375" y="90" x="54.04840087890625" class="er attributeBoxEven"/><text style="dominant-baseline: middle; font-size: 10.2px;" transform="translate(59.04840087890625,101)" y="0" x="0" id="text-entity-users-33ae1e26-be31-5c1d-bf65-e859e9d0308e-attr-4-name" class="er entityLabel">email</text><rect height="22" width="21.68072509765625" y="90" x="111.64215087890625" class="er attributeBoxEven"/><text style="dominant-baseline: middle; font-size: 10.2px;" transform="translate(116.64215087890625,101)" y="0" x="0" id="text-entity-users-33ae1e26-be31-5c1d-bf65-e859e9d0308e-attr-4-key" class="er entityLabel"/><rect height="22" width="54.04840087890625" y="112" x="0" class="er attributeBoxOdd"/><text style="dominant-baseline: middle; font-size: 10.2px;" transform="translate(5,123)" y="0" x="0" id="text-entity-users-33ae1e26-be31-5c1d-bf65-e859e9d0308e-attr-5-type" class="er entityLabel">Role</text><rect height="22" width="57.59375" y="112" x="54.04840087890625" class="er attributeBoxOdd"/><text style="dominant-baseline: middle; font-size: 10.2px;" transform="translate(59.04840087890625,123)" y="0" x="0" id="text-entity-users-33ae1e26-be31-5c1d-bf65-e859e9d0308e-attr-5-name" class="er entityLabel">role</text><rect height="22" width="21.68072509765625" y="112" x="111.64215087890625" class="er attributeBoxOdd"/><text style="dominant-baseline: middle; font-size: 10.2px;" transform="translate(116.64215087890625,123)" y="0" x="0" id="text-entity-users-33ae1e26-be31-5c1d-bf65-e859e9d0308e-attr-5-key" class="er entityLabel"/><rect height="22" width="54.04840087890625" y="134" x="0" class="er attributeBoxEven"/><text style="dominant-baseline: middle; font-size: 10.2px;" transform="translate(5,145)" y="0" x="0" id="text-entity-users-33ae1e26-be31-5c1d-bf65-e859e9d0308e-attr-6-type" class="er entityLabel">DateTime</text><rect height="22" width="57.59375" y="134" x="54.04840087890625" class="er attributeBoxEven"/><text style="dominant-baseline: middle; font-size: 10.2px;" transform="translate(59.04840087890625,145)" y="0" x="0" id="text-entity-users-33ae1e26-be31-5c1d-bf65-e859e9d0308e-attr-6-name" class="er entityLabel">createdAt</text><rect height="22" width="21.68072509765625" y="134" x="111.64215087890625" class="er attributeBoxEven"/><text style="dominant-baseline: middle; font-size: 10.2px;" transform="translate(116.64215087890625,145)" y="0" x="0" id="text-entity-users-33ae1e26-be31-5c1d-bf65-e859e9d0308e-attr-6-key" class="er entityLabel"/><rect height="22" width="54.04840087890625" y="156" x="0" class="er attributeBoxOdd"/><text style="dominant-baseline: middle; font-size: 10.2px;" transform="translate(5,167)" y="0" x="0" id="text-entity-users-33ae1e26-be31-5c1d-bf65-e859e9d0308e-attr-7-type" class="er entityLabel">DateTime</text><rect height="22" width="57.59375" y="156" x="54.04840087890625" class="er attributeBoxOdd"/><text style="dominant-baseline: middle; font-size: 10.2px;" transform="translate(59.04840087890625,167)" y="0" x="0" id="text-entity-users-33ae1e26-be31-5c1d-bf65-e859e9d0308e-attr-7-name" class="er entityLabel">updatedAt</text><rect height="22" width="21.68072509765625" y="156" x="111.64215087890625" class="er attributeBoxOdd"/><text style="dominant-baseline: middle; font-size: 10.2px;" transform="translate(116.64215087890625,167)" y="0" x="0" id="text-entity-users-33ae1e26-be31-5c1d-bf65-e859e9d0308e-attr-7-key" class="er entityLabel"/></g><g transform="translate(456.57568359375,331 )" id="entity-mealsessions-143427cf-1013-5338-b192-dbe7071036ca"><rect height="90" width="175.70034790039062" y="0" x="0" class="er entityBox"/><text style="dominant-baseline: middle; text-anchor: middle; font-size: 12px;" transform="translate(87.85017395019531,12)" y="0" x="0" id="text-entity-mealsessions-143427cf-1013-5338-b192-dbe7071036ca" class="er entityLabel">meal_sessions</text><rect height="22" width="54.04840087890625" y="24" x="0" class="er attributeBoxOdd"/><text style="dominant-baseline: middle; font-size: 10.2px;" transform="translate(5,35)" y="0" x="0" id="text-entity-mealsessions-143427cf-1013-5338-b192-dbe7071036ca-attr-1-type" class="er entityLabel">String</text><rect height="22" width="52.796875" y="24" x="54.04840087890625" class="er attributeBoxOdd"/><text style="dominant-baseline: middle; font-size: 10.2px;" transform="translate(59.04840087890625,35)" y="0" x="0" id="text-entity-mealsessions-143427cf-1013-5338-b192-dbe7071036ca-attr-1-name" class="er entityLabel">id</text><rect height="22" width="21.68072509765625" y="24" x="106.84527587890625" class="er attributeBoxOdd"/><text style="dominant-baseline: middle; font-size: 10.2px;" transform="translate(111.84527587890625,35)" y="0" x="0" id="text-entity-mealsessions-143427cf-1013-5338-b192-dbe7071036ca-attr-1-key" class="er entityLabel">PK</text><rect height="22" width="47.174346923828125" y="24" x="128.5260009765625" class="er attributeBoxOdd"/><text style="dominant-baseline: middle; font-size: 10.2px;" transform="translate(133.5260009765625,35)" y="0" x="0" id="text-entity-mealsessions-143427cf-1013-5338-b192-dbe7071036ca-attr-1-comment" class="er entityLabel"/><rect height="22" width="54.04840087890625" y="46" x="0" class="er attributeBoxEven"/><text style="dominant-baseline: middle; font-size: 10.2px;" transform="translate(5,57)" y="0" x="0" id="text-entity-mealsessions-143427cf-1013-5338-b192-dbe7071036ca-attr-2-type" class="er entityLabel">DateTime</text><rect height="22" width="52.796875" y="46" x="54.04840087890625" class="er attributeBoxEven"/><text style="dominant-baseline: middle; font-size: 10.2px;" transform="translate(59.04840087890625,57)" y="0" x="0" id="text-entity-mealsessions-143427cf-1013-5338-b192-dbe7071036ca-attr-2-name" class="er entityLabel">startedAt</text><rect height="22" width="21.68072509765625" y="46" x="106.84527587890625" class="er attributeBoxEven"/><text style="dominant-baseline: middle; font-size: 10.2px;" transform="translate(111.84527587890625,57)" y="0" x="0" id="text-entity-mealsessions-143427cf-1013-5338-b192-dbe7071036ca-attr-2-key" class="er entityLabel"/><rect height="22" width="47.174346923828125" y="46" x="128.5260009765625" class="er attributeBoxEven"/><text style="dominant-baseline: middle; font-size: 10.2px;" transform="translate(133.5260009765625,57)" y="0" x="0" id="text-entity-mealsessions-143427cf-1013-5338-b192-dbe7071036ca-attr-2-comment" class="er entityLabel"/><rect height="22" width="54.04840087890625" y="68" x="0" class="er attributeBoxOdd"/><text style="dominant-baseline: middle; font-size: 10.2px;" transform="translate(5,79)" y="0" x="0" id="text-entity-mealsessions-143427cf-1013-5338-b192-dbe7071036ca-attr-3-type" class="er entityLabel">DateTime</text><rect height="22" width="52.796875" y="68" x="54.04840087890625" class="er attributeBoxOdd"/><text style="dominant-baseline: middle; font-size: 10.2px;" transform="translate(59.04840087890625,79)" y="0" x="0" id="text-entity-mealsessions-143427cf-1013-5338-b192-dbe7071036ca-attr-3-name" class="er entityLabel">closedAt</text><rect height="22" width="21.68072509765625" y="68" x="106.84527587890625" class="er attributeBoxOdd"/><text style="dominant-baseline: middle; font-size: 10.2px;" transform="translate(111.84527587890625,79)" y="0" x="0" id="text-entity-mealsessions-143427cf-1013-5338-b192-dbe7071036ca-attr-3-key" class="er entityLabel"/><rect height="22" width="47.174346923828125" y="68" x="128.5260009765625" class="er attributeBoxOdd"/><text style="dominant-baseline: middle; font-size: 10.2px;" transform="translate(133.5260009765625,79)" y="0" x="0" id="text-entity-mealsessions-143427cf-1013-5338-b192-dbe7071036ca-attr-3-comment" class="er entityLabel">nullable</text></g><g transform="translate(407.7676544189453,75 )" id="entity-studentsinmealsessions-a3b4ca2d-626a-5765-93cd-f1ed6fbc562f"><rect height="68" width="173.31640625" y="0" x="0" class="er entityBox"/><text style="dominant-baseline: middle; text-anchor: middle; font-size: 12px;" transform="translate(86.658203125,12)" y="0" x="0" id="text-entity-studentsinmealsessions-a3b4ca2d-626a-5765-93cd-f1ed6fbc562f" class="er entityLabel">students_in_meal_sessions</text><rect height="22" width="69.93686930338542" y="24" x="0" class="er attributeBoxOdd"/><text style="dominant-baseline: middle; font-size: 10.2px;" transform="translate(5,35)" y="0" x="0" id="text-entity-studentsinmealsessions-a3b4ca2d-626a-5765-93cd-f1ed6fbc562f-attr-1-type" class="er entityLabel">String</text><rect height="22" width="65.81034342447917" y="24" x="69.93686930338542" class="er attributeBoxOdd"/><text style="dominant-baseline: middle; font-size: 10.2px;" transform="translate(74.93686930338542,35)" y="0" x="0" id="text-entity-studentsinmealsessions-a3b4ca2d-626a-5765-93cd-f1ed6fbc562f-attr-1-name" class="er entityLabel">id</text><rect height="22" width="37.569193522135414" y="24" x="135.7472127278646" class="er attributeBoxOdd"/><text style="dominant-baseline: middle; font-size: 10.2px;" transform="translate(140.7472127278646,35)" y="0" x="0" id="text-entity-studentsinmealsessions-a3b4ca2d-626a-5765-93cd-f1ed6fbc562f-attr-1-key" class="er entityLabel">PK</text><rect height="22" width="69.93686930338542" y="46" x="0" class="er attributeBoxEven"/><text style="dominant-baseline: middle; font-size: 10.2px;" transform="translate(5,57)" y="0" x="0" id="text-entity-studentsinmealsessions-a3b4ca2d-626a-5765-93cd-f1ed6fbc562f-attr-2-type" class="er entityLabel">DateTime</text><rect height="22" width="65.81034342447917" y="46" x="69.93686930338542" class="er attributeBoxEven"/><text style="dominant-baseline: middle; font-size: 10.2px;" transform="translate(74.93686930338542,57)" y="0" x="0" id="text-entity-studentsinmealsessions-a3b4ca2d-626a-5765-93cd-f1ed6fbc562f-attr-2-name" class="er entityLabel">servedAt</text><rect height="22" width="37.569193522135414" y="46" x="135.7472127278646" class="er attributeBoxEven"/><text style="dominant-baseline: middle; font-size: 10.2px;" transform="translate(140.7472127278646,57)" y="0" x="0" id="text-entity-studentsinmealsessions-a3b4ca2d-626a-5765-93cd-f1ed6fbc562f-attr-2-key" class="er entityLabel"/></g><rect height="14" width="40.958984375" y="236.4620819091797" x="204.58834838867188" class="er relationshipLabelBox"/><text style="text-anchor: middle; dominant-baseline: middle; font-size: 12px;" y="243.4620819091797" x="225.06784057617188" id="rel1" class="er relationshipLabel">student</text><rect height="14" width="55.66796875" y="256.4333801269531" x="45.66615295410156" class="er relationshipLabelBox"/><text style="text-anchor: middle; dominant-baseline: middle; font-size: 12px;" y="263.4333801269531" x="73.50013732910156" id="rel2" class="er relationshipLabel">enum:role</text><rect height="14" width="37.546875" y="227.98162841796875" x="517.3238525390625" class="er relationshipLabelBox"/><text style="text-anchor: middle; dominant-baseline: middle; font-size: 12px;" y="234.98162841796875" x="536.0972900390625" id="rel3" class="er relationshipLabel">session</text><rect height="14" width="40.958984375" y="210.4163818359375" x="375.7508544921875" class="er relationshipLabelBox"/><text style="text-anchor: middle; dominant-baseline: middle; font-size: 12px;" y="217.4163818359375" x="396.2303466796875" id="rel4" class="er relationshipLabel">student</text></svg>