<svg aria-roledescription="er" role="graphics-document document" viewBox="0 0 390.7470703125 461" style="max-width: 390.747px; background-color: white;" xmlns:xlink="http://www.w3.org/1999/xlink" xmlns="http://www.w3.org/2000/svg" width="100%" id="mermaid-0"><style>#mermaid-0{font-family:"trebuchet ms",verdana,arial,sans-serif;font-size:16px;fill:#000000;}#mermaid-0 .error-icon{fill:#552222;}#mermaid-0 .error-text{fill:#552222;stroke:#552222;}#mermaid-0 .edge-thickness-normal{stroke-width:2px;}#mermaid-0 .edge-thickness-thick{stroke-width:3.5px;}#mermaid-0 .edge-pattern-solid{stroke-dasharray:0;}#mermaid-0 .edge-pattern-dashed{stroke-dasharray:3;}#mermaid-0 .edge-pattern-dotted{stroke-dasharray:2;}#mermaid-0 .marker{fill:#000000;stroke:#000000;}#mermaid-0 .marker.cross{stroke:#000000;}#mermaid-0 svg{font-family:"trebuchet ms",verdana,arial,sans-serif;font-size:16px;}#mermaid-0 .entityBox{fill:#cde498;stroke:#13540c;}#mermaid-0 .attributeBoxOdd{fill:#ffffff;stroke:#13540c;}#mermaid-0 .attributeBoxEven{fill:#f2f2f2;stroke:#13540c;}#mermaid-0 .relationshipLabelBox{fill:hsl(78.1578947368, 58.4615384615%, 84.5098039216%);opacity:0.7;background-color:hsl(78.1578947368, 58.4615384615%, 84.5098039216%);}#mermaid-0 .relationshipLabelBox rect{opacity:0.5;}#mermaid-0 .relationshipLine{stroke:#000000;}#mermaid-0 .entityTitleText{text-anchor:middle;font-size:18px;fill:#000000;}#mermaid-0 :root{--mermaid-font-family:"trebuchet ms",verdana,arial,sans-serif;}</style><g/><defs><marker orient="auto" markerHeight="18" markerWidth="18" refY="9" refX="0" id="ONLY_ONE_START"><path d="M9,0 L9,18 M15,0 L15,18" fill="none" stroke="gray"/></marker></defs><defs><marker orient="auto" markerHeight="18" markerWidth="18" refY="9" refX="18" id="ONLY_ONE_END"><path d="M3,0 L3,18 M9,0 L9,18" fill="none" stroke="gray"/></marker></defs><defs><marker orient="auto" markerHeight="18" markerWidth="30" refY="9" refX="0" id="ZERO_OR_ONE_START"><circle r="6" cy="9" cx="21" fill="white" stroke="gray"/><path d="M9,0 L9,18" fill="none" stroke="gray"/></marker></defs><defs><marker orient="auto" markerHeight="18" markerWidth="30" refY="9" refX="30" id="ZERO_OR_ONE_END"><circle r="6" cy="9" cx="9" fill="white" stroke="gray"/><path d="M21,0 L21,18" fill="none" stroke="gray"/></marker></defs><defs><marker orient="auto" markerHeight="36" markerWidth="45" refY="18" refX="18" id="ONE_OR_MORE_START"><path d="M0,18 Q 18,0 36,18 Q 18,36 0,18 M42,9 L42,27" fill="none" stroke="gray"/></marker></defs><defs><marker orient="auto" markerHeight="36" markerWidth="45" refY="18" refX="27" id="ONE_OR_MORE_END"><path d="M3,9 L3,27 M9,18 Q27,0 45,18 Q27,36 9,18" fill="none" stroke="gray"/></marker></defs><defs><marker orient="auto" markerHeight="36" markerWidth="57" refY="18" refX="18" id="ZERO_OR_MORE_START"><circle r="6" cy="18" cx="48" fill="white" stroke="gray"/><path d="M0,18 Q18,0 36,18 Q18,36 0,18" fill="none" stroke="gray"/></marker></defs><defs><marker orient="auto" markerHeight="36" markerWidth="57" refY="18" refX="39" id="ZERO_OR_MORE_END"><circle r="6" cy="18" cx="9" fill="white" stroke="gray"/><path d="M21,18 Q39,0 57,18 Q39,36 21,18" fill="none" stroke="gray"/></marker></defs><path style="stroke: gray; fill: none;" marker-start="url(#ZERO_OR_ONE_START)" marker-end="url(#ZERO_OR_ONE_END)" d="M132.686767578125,186.38166780410126L125.1163330078125,195.48472317008438C117.5458984375,204.5877785360675,102.405029296875,222.79388926803372,94.8345947265625,240.2302779673502C87.26416015625,257.6666666666667,87.26416015625,274.3333333333333,87.26416015625,282.6666666666667L87.26416015625,291" class="er relationshipLine"/><path style="stroke: gray; fill: none;" marker-start="url(#ZERO_OR_ONE_START)" marker-end="url(#ONLY_ONE_END)" d="M267.215087890625,186.38166780410126L274.7855224609375,195.48472317008438C282.35595703125,204.5877785360675,297.496826171875,222.79388926803372,305.0672607421875,245.4802779673502C312.6376953125,268.1666666666667,312.6376953125,295.3333333333333,312.6376953125,308.9166666666667L312.6376953125,322.5" class="er relationshipLine"/><g transform="translate(254.5283203125,322.5 )" id="entity-Role-8dbdbbc4-0419-5464-aae6-f142fb2ece67"><rect height="87" width="116.21875" y="0" x="0" class="er entityBox"/><text style="dominant-baseline: middle; text-anchor: middle; font-size: 12px;" transform="translate(58.109375,12)" y="0" x="0" id="text-entity-Role-8dbdbbc4-0419-5464-aae6-f142fb2ece67" class="er entityLabel">Role</text><rect height="21" width="58.109375" y="24" x="0" class="er attributeBoxOdd"/><text style="dominant-baseline: middle; font-size: 10.2px;" transform="translate(5,34.5)" y="0" x="0" id="text-entity-Role-8dbdbbc4-0419-5464-aae6-f142fb2ece67-attr-1-type" class="er entityLabel">STUDENT</text><rect height="21" width="58.109375" y="24" x="58.109375" class="er attributeBoxOdd"/><text style="dominant-baseline: middle; font-size: 10.2px;" transform="translate(63.109375,34.5)" y="0" x="0" id="text-entity-Role-8dbdbbc4-0419-5464-aae6-f142fb2ece67-attr-1-name" class="er entityLabel">STUDENT</text><rect height="21" width="58.109375" y="45" x="0" class="er attributeBoxEven"/><text style="dominant-baseline: middle; font-size: 10.2px;" transform="translate(5,55.5)" y="0" x="0" id="text-entity-Role-8dbdbbc4-0419-5464-aae6-f142fb2ece67-attr-2-type" class="er entityLabel">VERIFIER</text><rect height="21" width="58.109375" y="45" x="58.109375" class="er attributeBoxEven"/><text style="dominant-baseline: middle; font-size: 10.2px;" transform="translate(63.109375,55.5)" y="0" x="0" id="text-entity-Role-8dbdbbc4-0419-5464-aae6-f142fb2ece67-attr-2-name" class="er entityLabel">VERIFIER</text><rect height="21" width="58.109375" y="66" x="0" class="er attributeBoxOdd"/><text style="dominant-baseline: middle; font-size: 10.2px;" transform="translate(5,76.5)" y="0" x="0" id="text-entity-Role-8dbdbbc4-0419-5464-aae6-f142fb2ece67-attr-3-type" class="er entityLabel">ADMIN</text><rect height="21" width="58.109375" y="66" x="58.109375" class="er attributeBoxOdd"/><text style="dominant-baseline: middle; font-size: 10.2px;" transform="translate(63.109375,76.5)" y="0" x="0" id="text-entity-Role-8dbdbbc4-0419-5464-aae6-f142fb2ece67-attr-3-name" class="er entityLabel">ADMIN</text></g><g transform="translate(20,291 )" id="entity-students-1a328c67-5d59-56d0-bf8f-611c89a8fa4f"><rect height="150" width="134.5283203125" y="0" x="0" class="er entityBox"/><text style="dominant-baseline: middle; text-anchor: middle; font-size: 12px;" transform="translate(67.26416015625,12)" y="0" x="0" id="text-entity-students-1a328c67-5d59-56d0-bf8f-611c89a8fa4f" class="er entityLabel">students</text><rect height="21" width="54.113128662109375" y="24" x="0" class="er attributeBoxOdd"/><text style="dominant-baseline: middle; font-size: 10.2px;" transform="translate(5,34.5)" y="0" x="0" id="text-entity-students-1a328c67-5d59-56d0-bf8f-611c89a8fa4f-attr-1-type" class="er entityLabel">String</text><rect height="21" width="56.620208740234375" y="24" x="54.113128662109375" class="er attributeBoxOdd"/><text style="dominant-baseline: middle; font-size: 10.2px;" transform="translate(59.113128662109375,34.5)" y="0" x="0" id="text-entity-students-1a328c67-5d59-56d0-bf8f-611c89a8fa4f-attr-1-name" class="er entityLabel">id</text><rect height="21" width="23.79498291015625" y="24" x="110.73333740234375" class="er attributeBoxOdd"/><text style="dominant-baseline: middle; font-size: 10.2px;" transform="translate(115.73333740234375,34.5)" y="0" x="0" id="text-entity-students-1a328c67-5d59-56d0-bf8f-611c89a8fa4f-attr-1-key" class="er entityLabel">PK</text><rect height="21" width="54.113128662109375" y="45" x="0" class="er attributeBoxEven"/><text style="dominant-baseline: middle; font-size: 10.2px;" transform="translate(5,55.5)" y="0" x="0" id="text-entity-students-1a328c67-5d59-56d0-bf8f-611c89a8fa4f-attr-2-type" class="er entityLabel">String</text><rect height="21" width="56.620208740234375" y="45" x="54.113128662109375" class="er attributeBoxEven"/><text style="dominant-baseline: middle; font-size: 10.2px;" transform="translate(59.113128662109375,55.5)" y="0" x="0" id="text-entity-students-1a328c67-5d59-56d0-bf8f-611c89a8fa4f-attr-2-name" class="er entityLabel">name</text><rect height="21" width="23.79498291015625" y="45" x="110.73333740234375" class="er attributeBoxEven"/><text style="dominant-baseline: middle; font-size: 10.2px;" transform="translate(115.73333740234375,55.5)" y="0" x="0" id="text-entity-students-1a328c67-5d59-56d0-bf8f-611c89a8fa4f-attr-2-key" class="er entityLabel"/><rect height="21" width="54.113128662109375" y="66" x="0" class="er attributeBoxOdd"/><text style="dominant-baseline: middle; font-size: 10.2px;" transform="translate(5,76.5)" y="0" x="0" id="text-entity-students-1a328c67-5d59-56d0-bf8f-611c89a8fa4f-attr-3-type" class="er entityLabel">String</text><rect height="21" width="56.620208740234375" y="66" x="54.113128662109375" class="er attributeBoxOdd"/><text style="dominant-baseline: middle; font-size: 10.2px;" transform="translate(59.113128662109375,76.5)" y="0" x="0" id="text-entity-students-1a328c67-5d59-56d0-bf8f-611c89a8fa4f-attr-3-name" class="er entityLabel">email</text><rect height="21" width="23.79498291015625" y="66" x="110.73333740234375" class="er attributeBoxOdd"/><text style="dominant-baseline: middle; font-size: 10.2px;" transform="translate(115.73333740234375,76.5)" y="0" x="0" id="text-entity-students-1a328c67-5d59-56d0-bf8f-611c89a8fa4f-attr-3-key" class="er entityLabel"/><rect height="21" width="54.113128662109375" y="87" x="0" class="er attributeBoxEven"/><text style="dominant-baseline: middle; font-size: 10.2px;" transform="translate(5,97.5)" y="0" x="0" id="text-entity-students-1a328c67-5d59-56d0-bf8f-611c89a8fa4f-attr-4-type" class="er entityLabel">String</text><rect height="21" width="56.620208740234375" y="87" x="54.113128662109375" class="er attributeBoxEven"/><text style="dominant-baseline: middle; font-size: 10.2px;" transform="translate(59.113128662109375,97.5)" y="0" x="0" id="text-entity-students-1a328c67-5d59-56d0-bf8f-611c89a8fa4f-attr-4-name" class="er entityLabel">picUrl</text><rect height="21" width="23.79498291015625" y="87" x="110.73333740234375" class="er attributeBoxEven"/><text style="dominant-baseline: middle; font-size: 10.2px;" transform="translate(115.73333740234375,97.5)" y="0" x="0" id="text-entity-students-1a328c67-5d59-56d0-bf8f-611c89a8fa4f-attr-4-key" class="er entityLabel"/><rect height="21" width="54.113128662109375" y="108" x="0" class="er attributeBoxOdd"/><text style="dominant-baseline: middle; font-size: 10.2px;" transform="translate(5,118.5)" y="0" x="0" id="text-entity-students-1a328c67-5d59-56d0-bf8f-611c89a8fa4f-attr-5-type" class="er entityLabel">DateTime</text><rect height="21" width="56.620208740234375" y="108" x="54.113128662109375" class="er attributeBoxOdd"/><text style="dominant-baseline: middle; font-size: 10.2px;" transform="translate(59.113128662109375,118.5)" y="0" x="0" id="text-entity-students-1a328c67-5d59-56d0-bf8f-611c89a8fa4f-attr-5-name" class="er entityLabel">createdAt</text><rect height="21" width="23.79498291015625" y="108" x="110.73333740234375" class="er attributeBoxOdd"/><text style="dominant-baseline: middle; font-size: 10.2px;" transform="translate(115.73333740234375,118.5)" y="0" x="0" id="text-entity-students-1a328c67-5d59-56d0-bf8f-611c89a8fa4f-attr-5-key" class="er entityLabel"/><rect height="21" width="54.113128662109375" y="129" x="0" class="er attributeBoxEven"/><text style="dominant-baseline: middle; font-size: 10.2px;" transform="translate(5,139.5)" y="0" x="0" id="text-entity-students-1a328c67-5d59-56d0-bf8f-611c89a8fa4f-attr-6-type" class="er entityLabel">DateTime</text><rect height="21" width="56.620208740234375" y="129" x="54.113128662109375" class="er attributeBoxEven"/><text style="dominant-baseline: middle; font-size: 10.2px;" transform="translate(59.113128662109375,139.5)" y="0" x="0" id="text-entity-students-1a328c67-5d59-56d0-bf8f-611c89a8fa4f-attr-6-name" class="er entityLabel">updatedAt</text><rect height="21" width="23.79498291015625" y="129" x="110.73333740234375" class="er attributeBoxEven"/><text style="dominant-baseline: middle; font-size: 10.2px;" transform="translate(115.73333740234375,139.5)" y="0" x="0" id="text-entity-students-1a328c67-5d59-56d0-bf8f-611c89a8fa4f-attr-6-key" class="er entityLabel"/></g><g transform="translate(132.686767578125,20 )" id="entity-users-33ae1e26-be31-5c1d-bf65-e859e9d0308e"><rect height="171" width="134.5283203125" y="0" x="0" class="er entityBox"/><text style="dominant-baseline: middle; text-anchor: middle; font-size: 12px;" transform="translate(67.26416015625,12)" y="0" x="0" id="text-entity-users-33ae1e26-be31-5c1d-bf65-e859e9d0308e" class="er entityLabel">users</text><rect height="21" width="54.113128662109375" y="24" x="0" class="er attributeBoxOdd"/><text style="dominant-baseline: middle; font-size: 10.2px;" transform="translate(5,34.5)" y="0" x="0" id="text-entity-users-33ae1e26-be31-5c1d-bf65-e859e9d0308e-attr-1-type" class="er entityLabel">String</text><rect height="21" width="56.620208740234375" y="24" x="54.113128662109375" class="er attributeBoxOdd"/><text style="dominant-baseline: middle; font-size: 10.2px;" transform="translate(59.113128662109375,34.5)" y="0" x="0" id="text-entity-users-33ae1e26-be31-5c1d-bf65-e859e9d0308e-attr-1-name" class="er entityLabel">id</text><rect height="21" width="23.79498291015625" y="24" x="110.73333740234375" class="er attributeBoxOdd"/><text style="dominant-baseline: middle; font-size: 10.2px;" transform="translate(115.73333740234375,34.5)" y="0" x="0" id="text-entity-users-33ae1e26-be31-5c1d-bf65-e859e9d0308e-attr-1-key" class="er entityLabel">PK</text><rect height="21" width="54.113128662109375" y="45" x="0" class="er attributeBoxEven"/><text style="dominant-baseline: middle; font-size: 10.2px;" transform="translate(5,55.5)" y="0" x="0" id="text-entity-users-33ae1e26-be31-5c1d-bf65-e859e9d0308e-attr-2-type" class="er entityLabel">String</text><rect height="21" width="56.620208740234375" y="45" x="54.113128662109375" class="er attributeBoxEven"/><text style="dominant-baseline: middle; font-size: 10.2px;" transform="translate(59.113128662109375,55.5)" y="0" x="0" id="text-entity-users-33ae1e26-be31-5c1d-bf65-e859e9d0308e-attr-2-name" class="er entityLabel">name</text><rect height="21" width="23.79498291015625" y="45" x="110.73333740234375" class="er attributeBoxEven"/><text style="dominant-baseline: middle; font-size: 10.2px;" transform="translate(115.73333740234375,55.5)" y="0" x="0" id="text-entity-users-33ae1e26-be31-5c1d-bf65-e859e9d0308e-attr-2-key" class="er entityLabel"/><rect height="21" width="54.113128662109375" y="66" x="0" class="er attributeBoxOdd"/><text style="dominant-baseline: middle; font-size: 10.2px;" transform="translate(5,76.5)" y="0" x="0" id="text-entity-users-33ae1e26-be31-5c1d-bf65-e859e9d0308e-attr-3-type" class="er entityLabel">String</text><rect height="21" width="56.620208740234375" y="66" x="54.113128662109375" class="er attributeBoxOdd"/><text style="dominant-baseline: middle; font-size: 10.2px;" transform="translate(59.113128662109375,76.5)" y="0" x="0" id="text-entity-users-33ae1e26-be31-5c1d-bf65-e859e9d0308e-attr-3-name" class="er entityLabel">password</text><rect height="21" width="23.79498291015625" y="66" x="110.73333740234375" class="er attributeBoxOdd"/><text style="dominant-baseline: middle; font-size: 10.2px;" transform="translate(115.73333740234375,76.5)" y="0" x="0" id="text-entity-users-33ae1e26-be31-5c1d-bf65-e859e9d0308e-attr-3-key" class="er entityLabel"/><rect height="21" width="54.113128662109375" y="87" x="0" class="er attributeBoxEven"/><text style="dominant-baseline: middle; font-size: 10.2px;" transform="translate(5,97.5)" y="0" x="0" id="text-entity-users-33ae1e26-be31-5c1d-bf65-e859e9d0308e-attr-4-type" class="er entityLabel">String</text><rect height="21" width="56.620208740234375" y="87" x="54.113128662109375" class="er attributeBoxEven"/><text style="dominant-baseline: middle; font-size: 10.2px;" transform="translate(59.113128662109375,97.5)" y="0" x="0" id="text-entity-users-33ae1e26-be31-5c1d-bf65-e859e9d0308e-attr-4-name" class="er entityLabel">email</text><rect height="21" width="23.79498291015625" y="87" x="110.73333740234375" class="er attributeBoxEven"/><text style="dominant-baseline: middle; font-size: 10.2px;" transform="translate(115.73333740234375,97.5)" y="0" x="0" id="text-entity-users-33ae1e26-be31-5c1d-bf65-e859e9d0308e-attr-4-key" class="er entityLabel"/><rect height="21" width="54.113128662109375" y="108" x="0" class="er attributeBoxOdd"/><text style="dominant-baseline: middle; font-size: 10.2px;" transform="translate(5,118.5)" y="0" x="0" id="text-entity-users-33ae1e26-be31-5c1d-bf65-e859e9d0308e-attr-5-type" class="er entityLabel">Role</text><rect height="21" width="56.620208740234375" y="108" x="54.113128662109375" class="er attributeBoxOdd"/><text style="dominant-baseline: middle; font-size: 10.2px;" transform="translate(59.113128662109375,118.5)" y="0" x="0" id="text-entity-users-33ae1e26-be31-5c1d-bf65-e859e9d0308e-attr-5-name" class="er entityLabel">role</text><rect height="21" width="23.79498291015625" y="108" x="110.73333740234375" class="er attributeBoxOdd"/><text style="dominant-baseline: middle; font-size: 10.2px;" transform="translate(115.73333740234375,118.5)" y="0" x="0" id="text-entity-users-33ae1e26-be31-5c1d-bf65-e859e9d0308e-attr-5-key" class="er entityLabel"/><rect height="21" width="54.113128662109375" y="129" x="0" class="er attributeBoxEven"/><text style="dominant-baseline: middle; font-size: 10.2px;" transform="translate(5,139.5)" y="0" x="0" id="text-entity-users-33ae1e26-be31-5c1d-bf65-e859e9d0308e-attr-6-type" class="er entityLabel">DateTime</text><rect height="21" width="56.620208740234375" y="129" x="54.113128662109375" class="er attributeBoxEven"/><text style="dominant-baseline: middle; font-size: 10.2px;" transform="translate(59.113128662109375,139.5)" y="0" x="0" id="text-entity-users-33ae1e26-be31-5c1d-bf65-e859e9d0308e-attr-6-name" class="er entityLabel">createdAt</text><rect height="21" width="23.79498291015625" y="129" x="110.73333740234375" class="er attributeBoxEven"/><text style="dominant-baseline: middle; font-size: 10.2px;" transform="translate(115.73333740234375,139.5)" y="0" x="0" id="text-entity-users-33ae1e26-be31-5c1d-bf65-e859e9d0308e-attr-6-key" class="er entityLabel"/><rect height="21" width="54.113128662109375" y="150" x="0" class="er attributeBoxOdd"/><text style="dominant-baseline: middle; font-size: 10.2px;" transform="translate(5,160.5)" y="0" x="0" id="text-entity-users-33ae1e26-be31-5c1d-bf65-e859e9d0308e-attr-7-type" class="er entityLabel">DateTime</text><rect height="21" width="56.620208740234375" y="150" x="54.113128662109375" class="er attributeBoxOdd"/><text style="dominant-baseline: middle; font-size: 10.2px;" transform="translate(59.113128662109375,160.5)" y="0" x="0" id="text-entity-users-33ae1e26-be31-5c1d-bf65-e859e9d0308e-attr-7-name" class="er entityLabel">updatedAt</text><rect height="21" width="23.79498291015625" y="150" x="110.73333740234375" class="er attributeBoxOdd"/><text style="dominant-baseline: middle; font-size: 10.2px;" transform="translate(115.73333740234375,160.5)" y="0" x="0" id="text-entity-users-33ae1e26-be31-5c1d-bf65-e859e9d0308e-attr-7-key" class="er entityLabel"/></g><rect height="14" width="40.029296875" y="226.80178833007812" x="77.91744995117188" class="er relationshipLabelBox"/><text style="text-anchor: middle; dominant-baseline: middle; font-size: 12px;" y="233.80178833007812" x="97.93209838867188" id="rel1" class="er relationshipLabel">student</text><rect height="14" width="53.6875" y="241.8670196533203" x="279.288818359375" class="er relationshipLabelBox"/><text style="text-anchor: middle; dominant-baseline: middle; font-size: 12px;" y="248.8670196533203" x="306.132568359375" id="rel2" class="er relationshipLabel">enum:role</text></svg>